<svg version="1.1" id="Layer_1" xmlns="http://www.w3.org/2000/svg" xmlns:xlink="http://www.w3.org/1999/xlink" x="0px" y="0px"
	 width="100%" viewBox="0 0 500 500" enable-background="new 0 0 500 500" xml:space="preserve">
<path fill="#000000" opacity="1.000000" stroke="none" 
	d="
M334.000000,501.000000 
	C222.666687,501.000000 111.833389,501.000000 1.000059,501.000000 
	C1.000040,334.333405 1.000040,167.666794 1.000020,1.000149 
	C167.666565,1.000099 334.333130,1.000099 500.999756,1.000050 
	C500.999847,167.666519 500.999847,334.333038 500.999939,500.999786 
	C445.500000,501.000000 390.000000,501.000000 334.000000,501.000000 
M66.091354,301.967041 
	C61.325676,301.642120 56.564289,301.195557 51.793083,301.027191 
	C47.214199,300.865601 42.625141,300.992310 38.040554,300.992310 
	C37.966007,301.814240 37.891460,302.636139 37.816914,303.458069 
	C50.277420,306.978424 62.666679,310.781769 75.217903,313.941772 
	C88.526176,317.292358 101.991631,320.017120 115.382385,323.042053 
	C130.953201,326.559387 146.500931,330.180725 162.089081,333.619141 
	C178.158691,337.163757 194.244080,340.643707 210.361877,343.960876 
	C222.560471,346.471436 234.827942,348.645538 247.051331,351.037994 
	C255.578903,352.707062 264.097748,354.426727 272.595367,356.241302 
	C284.425018,358.767395 296.124084,362.258301 308.077026,363.756592 
	C320.505981,365.314667 330.746399,359.484955 338.029846,349.528137 
	C343.938995,341.450073 349.268799,332.899536 354.291656,324.231781 
	C364.747040,306.189301 374.891235,287.965118 385.042725,269.748413 
	C392.080444,257.119385 398.822052,244.325241 405.868225,231.701035 
	C413.762268,217.557632 422.162048,203.688431 429.768890,189.395050 
	C437.770508,174.359833 445.278656,159.052261 452.641815,143.690826 
	C456.712524,135.198181 460.602905,126.535889 463.551453,117.612007 
	C466.482544,108.740967 460.887329,100.842697 453.237793,102.120476 
	C443.138641,103.807442 433.068329,105.756660 423.086700,108.035889 
	C409.892975,111.048576 396.721344,114.215683 383.679321,117.819923 
	C368.874146,121.911423 354.210785,126.519821 339.507843,130.976425 
	C326.037567,135.059387 312.601044,139.253647 299.141876,143.373444 
	C279.948303,149.248550 260.763153,155.151932 241.544815,160.945221 
	C227.386795,165.213089 213.156464,169.241547 199.005005,173.530640 
	C187.294281,177.079956 175.633865,180.798813 163.985916,184.550491 
	C157.276093,186.711670 150.635269,189.087158 143.963394,191.366180 
	C144.092926,192.108780 144.222458,192.851379 144.351990,193.593964 
	C146.517380,193.715317 148.702118,194.081635 150.844589,193.912521 
	C157.547821,193.383438 164.228180,192.567535 170.930237,192.019928 
	C180.339874,191.251068 189.784927,190.853989 199.171616,189.881042 
	C212.995789,188.448151 226.771133,186.549698 240.587662,185.035690 
	C251.201981,183.872543 261.841187,182.919815 272.481079,182.010605 
	C288.697876,180.624817 304.925629,179.367569 321.147095,178.035553 
	C329.251404,177.370087 331.915497,181.998184 329.417725,189.733429 
	C325.714050,201.203201 320.635101,212.247772 315.821869,223.334534 
	C311.809479,232.576553 307.293732,241.598877 303.080170,250.754990 
	C298.011719,261.768738 293.206543,272.907471 287.946198,283.827759 
	C284.130188,291.749695 278.980988,298.882446 270.715759,302.615753 
	C265.668182,304.895691 260.187408,306.556854 254.729050,307.505585 
	C246.968399,308.854492 239.347015,310.839142 231.091965,309.165436 
	C220.456177,307.009064 209.547607,306.026978 198.708298,305.107880 
	C191.895111,304.530212 184.990494,305.122406 178.132248,304.961670 
	C169.130066,304.750732 160.133148,304.315186 150.720871,303.184296 
	C137.890549,303.316467 125.060219,303.448639 111.482750,303.071838 
	C106.267014,302.809021 101.051285,302.546173 95.832779,301.362823 
	C90.725891,301.245789 85.617004,300.984589 80.512703,301.054993 
	C76.009521,301.117126 71.511429,301.549286 66.091354,301.967041 
z"/>
<path fill="#ED1E26" opacity="1.000000" stroke="none" 
	d="
M151.133957,303.976227 
	C160.133148,304.315186 169.130066,304.750732 178.132248,304.961670 
	C184.990494,305.122406 191.895111,304.530212 198.708298,305.107880 
	C209.547607,306.026978 220.456177,307.009064 231.091965,309.165436 
	C239.347015,310.839142 246.968399,308.854492 254.729050,307.505585 
	C260.187408,306.556854 265.668182,304.895691 270.715759,302.615753 
	C278.980988,298.882446 284.130188,291.749695 287.946198,283.827759 
	C293.206543,272.907471 298.011719,261.768738 303.080170,250.754990 
	C307.293732,241.598877 311.809479,232.576553 315.821869,223.334534 
	C320.635101,212.247772 325.714050,201.203201 329.417725,189.733429 
	C331.915497,181.998184 329.251404,177.370087 321.147095,178.035553 
	C304.925629,179.367569 288.697876,180.624817 272.481079,182.010605 
	C261.841187,182.919815 251.201981,183.872543 240.587662,185.035690 
	C226.771133,186.549698 212.995789,188.448151 199.171616,189.881042 
	C189.784927,190.853989 180.339874,191.251068 170.930237,192.019928 
	C164.228180,192.567535 157.547821,193.383438 150.844589,193.912521 
	C148.702118,194.081635 146.517380,193.715317 144.351990,193.593964 
	C144.222458,192.851379 144.092926,192.108780 143.963394,191.366180 
	C150.635269,189.087158 157.276093,186.711670 163.985916,184.550491 
	C175.633865,180.798813 187.294281,177.079956 199.005005,173.530640 
	C213.156464,169.241547 227.386795,165.213089 241.544815,160.945221 
	C260.763153,155.151932 279.948303,149.248550 299.141876,143.373444 
	C312.601044,139.253647 326.037567,135.059387 339.507843,130.976425 
	C354.210785,126.519821 368.874146,121.911423 383.679321,117.819923 
	C396.721344,114.215683 409.892975,111.048576 423.086700,108.035889 
	C433.068329,105.756660 443.138641,103.807442 453.237793,102.120476 
	C460.887329,100.842697 466.482544,108.740967 463.551453,117.612007 
	C460.602905,126.535889 456.712524,135.198181 452.641815,143.690826 
	C445.278656,159.052261 437.770508,174.359833 429.768890,189.395050 
	C422.162048,203.688431 413.762268,217.557632 405.868225,231.701035 
	C398.822052,244.325241 392.080444,257.119385 385.042725,269.748413 
	C374.891235,287.965118 364.747040,306.189301 354.291656,324.231781 
	C349.268799,332.899536 343.938995,341.450073 338.029846,349.528137 
	C330.746399,359.484955 320.505981,365.314667 308.077026,363.756592 
	C296.124084,362.258301 284.425018,358.767395 272.595367,356.241302 
	C264.097748,354.426727 255.578903,352.707062 247.051331,351.037994 
	C234.827942,348.645538 222.560471,346.471436 210.361877,343.960876 
	C194.244080,340.643707 178.158691,337.163757 162.089081,333.619141 
	C146.500931,330.180725 130.953201,326.559387 115.382385,323.042053 
	C101.991631,320.017120 88.526176,317.292358 75.217903,313.941772 
	C62.666679,310.781769 50.277420,306.978424 37.816914,303.458069 
	C37.891460,302.636139 37.966007,301.814240 38.040554,300.992310 
	C42.625141,300.992310 47.214199,300.865601 51.793083,301.027191 
	C56.564289,301.195557 61.325676,301.642120 67.015160,301.961090 
	C77.237823,302.064545 86.536690,302.173920 95.835548,302.283325 
	C101.051285,302.546173 106.267014,302.809021 111.914986,302.879333 
	C117.374207,300.770233 122.025291,302.966064 126.916740,303.576874 
	C134.881577,304.571442 143.050919,303.928253 151.133957,303.976227 
z"/>
<path fill="#F9B3B5" opacity="1.000000" stroke="none" 
	d="
M150.927414,303.580261 
	C143.050919,303.928253 134.881577,304.571442 126.916740,303.576874 
	C122.025291,302.966064 117.374207,300.770233 112.288559,303.133789 
	C125.060219,303.448639 137.890549,303.316467 150.927414,303.580261 
z"/>
<path fill="#FEF5F5" opacity="1.000000" stroke="none" 
	d="
M95.834167,301.823059 
	C86.536690,302.173920 77.237823,302.064545 67.475029,301.886597 
	C71.511429,301.549286 76.009521,301.117126 80.512703,301.054993 
	C85.617004,300.984589 90.725891,301.245789 95.834167,301.823059 
z"/>
</svg>